# xmcd
# 
# Track frame offsets:
#     150
#     2257
#     17822
#     34714
#     51023
#     69403
#     70862
#     88659
#     109234
#     110608
#     128870
#     146405
#     164409
#     183501
#     184691
#     200435
#     221647
#     239722
#     255176
#     258193
# 
# Disc length: 3621
# 
# Revision: 0
# Processed by: cddbd v1.5.2PL0 Copyright (c) Steve Scherf et al.
# Submitted via: fre:ac v1.1beta1pre5
# 
DISCID=160e2314
DTITLE=Various Artist - Jock Jams Volume 1 ESPN
DYEAR=1995
DGENRE=Jams
TTITLE0=Let's Get Ready To Rumble
TTITLE1=Get Ready 4 This
TTITLE2=Whoomp! There It Is
TTITLE3=Strike It Up
TTITLE4=Tootsee Roll
TTITLE5=Pump It Up, Go 'Head, Go 'Head
TTITLE6=Come Baby Come
TTITLE7=It Takes Two
TTITLE8=Gridiron Groove...
TTITLE9=Gonna Make You Sweat
TTITLE10=Hip Hop Hooray
TTITLE11=Pump Up The Volume
TTITLE12=The Power
TTITLE13=Uh, Ungawa!
TTITLE14=Unbelievable
TTITLE15=YMCA
TTITLE16=Pump Up The Jame
TTITLE17=Twilight Zone
TTITLE18=The Old Ballgame
TTITLE19=Rock and Roll Part 2
EXTD=
EXTT0=
EXTT1=
EXTT2=
EXTT3=
EXTT4=
EXTT5=
EXTT6=
EXTT7=
EXTT8=
EXTT9=
EXTT10=
EXTT11=
EXTT12=
EXTT13=
EXTT14=
EXTT15=
EXTT16=
EXTT17=
EXTT18=
EXTT19=
PLAYORDER=
